<?xml version="1.0" standalone="no"?>
<!DOCTYPE svg PUBLIC "-//W3C//DTD SVG 1.1//EN" "http://www.w3.org/Graphics/SVG/1.1/DTD/svg11.dtd">
<svg width="681mm" height="271mm" viewBox="0 -271 681 271" xmlns="http://www.w3.org/2000/svg" version="1.1">
<title>OpenSCAD Model</title>
<path d="
M 190.698,-104.11 L 199.286,-104.11 L 199.286,-100.11 L 207.875,-100.11 L 207.875,-104.11 L 216.463,-104.11
 L 216.463,-100.11 L 225.051,-100.11 L 225.051,-104.11 L 233.639,-104.11 L 233.639,-100.11 L 242.228,-100.11
 L 242.228,-104.11 L 250.816,-104.11 L 250.816,-100.11 L 259.404,-100.11 L 259.404,-104.11 L 267.992,-104.11
 L 267.992,-100.11 L 276.581,-100.11 L 276.581,-104.11 L 285.169,-104.11 L 285.169,-100.11 L 293.757,-100.11
 L 293.757,-104.11 L 302.345,-104.11 L 302.345,-100.11 L 310.934,-100.11 L 310.934,-104.11 L 319.522,-104.11
 L 319.522,-100.11 L 328.11,-100.11 L 328.11,-104.11 L 336.11,-104.11 L 336.11,-116.11 L 340.11,-116.11
 L 340.11,-124.228 L 336.11,-124.228 L 336.11,-132.345 L 340.11,-132.345 L 340.11,-140.463 L 336.11,-140.463
 L 336.11,-148.581 L 340.11,-148.581 L 340.11,-156.698 L 336.11,-156.698 L 336.11,-164.816 L 340.11,-164.816
 L 340.11,-172.934 L 336.11,-172.934 L 336.11,-181.051 L 340.11,-181.051 L 340.11,-189.169 L 336.11,-189.169
 L 336.11,-197.286 L 340.11,-197.286 L 340.11,-205.404 L 336.11,-205.404 L 336.11,-213.522 L 340.11,-213.522
 L 340.11,-221.639 L 336.11,-221.639 L 336.11,-229.757 L 340.11,-229.757 L 340.11,-237.875 L 336.11,-237.875
 L 336.11,-245.992 L 340.11,-245.992 L 340.11,-254.11 L 336.11,-254.11 L 336.11,-266.11 L 328.11,-266.11
 L 328.11,-270.11 L 319.522,-270.11 L 319.522,-266.11 L 310.934,-266.11 L 310.934,-270.11 L 302.345,-270.11
 L 302.345,-266.11 L 293.757,-266.11 L 293.757,-270.11 L 285.169,-270.11 L 285.169,-266.11 L 276.581,-266.11
 L 276.581,-270.11 L 267.992,-270.11 L 267.992,-266.11 L 259.404,-266.11 L 259.404,-270.11 L 250.816,-270.11
 L 250.816,-266.11 L 242.228,-266.11 L 242.228,-270.11 L 233.639,-270.11 L 233.639,-266.11 L 225.051,-266.11
 L 225.051,-270.11 L 216.463,-270.11 L 216.463,-266.11 L 207.875,-266.11 L 207.875,-270.11 L 199.286,-270.11
 L 199.286,-266.11 L 190.698,-266.11 L 190.698,-270.11 L 182.11,-270.11 L 182.11,-266.11 L 174.11,-266.11
 L 174.11,-254.11 L 170.11,-254.11 L 170.11,-245.992 L 174.11,-245.992 L 174.11,-237.875 L 170.11,-237.875
 L 170.11,-229.757 L 174.11,-229.757 L 174.11,-221.639 L 170.11,-221.639 L 170.11,-213.522 L 174.11,-213.522
 L 174.11,-205.404 L 170.11,-205.404 L 170.11,-197.286 L 174.11,-197.286 L 174.11,-189.169 L 170.11,-189.169
 L 170.11,-181.051 L 174.11,-181.051 L 174.11,-172.934 L 170.11,-172.934 L 170.11,-164.816 L 174.11,-164.816
 L 174.11,-156.698 L 170.11,-156.698 L 170.11,-148.581 L 174.11,-148.581 L 174.11,-140.463 L 170.11,-140.463
 L 170.11,-132.345 L 174.11,-132.345 L 174.11,-124.228 L 170.11,-124.228 L 170.11,-116.11 L 174.11,-116.11
 L 174.11,-104.11 L 182.11,-104.11 L 182.11,-100.11 L 190.698,-100.11 z
M 189.125,-176.484 L 188.25,-178 L 189.125,-179.516 L 190.875,-179.516 L 191.75,-178 L 190.875,-176.484
 z
M 238.125,-176.484 L 237.25,-178 L 238.125,-179.516 L 239.875,-179.516 L 240.75,-178 L 239.875,-176.484
 z
M 189.125,-118.484 L 188.25,-120 L 189.125,-121.516 L 190.875,-121.516 L 191.75,-120 L 190.875,-118.484
 z
M 238.125,-118.484 L 237.25,-120 L 238.125,-121.516 L 239.875,-121.516 L 240.75,-120 L 239.875,-118.484
 z
M 20.5882,-104.11 L 29.1765,-104.11 L 29.1765,-100.11 L 37.7647,-100.11 L 37.7647,-104.11 L 46.3529,-104.11
 L 46.3529,-100.11 L 54.9412,-100.11 L 54.9412,-104.11 L 63.5294,-104.11 L 63.5294,-100.11 L 72.1176,-100.11
 L 72.1176,-104.11 L 80.7059,-104.11 L 80.7059,-100.11 L 89.2941,-100.11 L 89.2941,-104.11 L 97.8823,-104.11
 L 97.8823,-100.11 L 106.471,-100.11 L 106.471,-104.11 L 115.059,-104.11 L 115.059,-100.11 L 123.647,-100.11
 L 123.647,-104.11 L 132.235,-104.11 L 132.235,-100.11 L 140.824,-100.11 L 140.824,-104.11 L 149.412,-104.11
 L 149.412,-100.11 L 158,-100.11 L 158,-104.11 L 166,-104.11 L 166,-116.11 L 170,-116.11
 L 170,-124.228 L 166,-124.228 L 166,-132.345 L 170,-132.345 L 170,-140.463 L 166,-140.463
 L 166,-148.581 L 170,-148.581 L 170,-156.698 L 166,-156.698 L 166,-164.816 L 170,-164.816
 L 170,-172.934 L 166,-172.934 L 166,-181.051 L 170,-181.051 L 170,-189.169 L 166,-189.169
 L 166,-197.286 L 170,-197.286 L 170,-205.404 L 166,-205.404 L 166,-213.522 L 170,-213.522
 L 170,-221.639 L 166,-221.639 L 166,-229.757 L 170,-229.757 L 170,-237.875 L 166,-237.875
 L 166,-245.992 L 170,-245.992 L 170,-254.11 L 166,-254.11 L 166,-266.11 L 158,-266.11
 L 158,-270.11 L 149.412,-270.11 L 149.412,-266.11 L 140.824,-266.11 L 140.824,-270.11 L 132.235,-270.11
 L 132.235,-266.11 L 123.647,-266.11 L 123.647,-270.11 L 115.059,-270.11 L 115.059,-266.11 L 106.471,-266.11
 L 106.471,-270.11 L 97.8824,-270.11 L 97.8824,-266.11 L 89.2941,-266.11 L 89.2941,-270.11 L 80.7059,-270.11
 L 80.7059,-266.11 L 72.1177,-266.11 L 72.1177,-270.11 L 63.5294,-270.11 L 63.5294,-266.11 L 54.9412,-266.11
 L 54.9412,-270.11 L 46.353,-270.11 L 46.353,-266.11 L 37.7647,-266.11 L 37.7647,-270.11 L 29.1765,-270.11
 L 29.1765,-266.11 L 20.5882,-266.11 L 20.5882,-270.11 L 12,-270.11 L 12,-266.11 L 4,-266.11
 L 4,-254.11 L 0,-254.11 L 0,-245.992 L 4,-245.992 L 4,-237.875 L 0,-237.875
 L 0,-229.757 L 4,-229.757 L 4,-221.639 L 0,-221.639 L 0,-213.522 L 4,-213.522
 L 4,-205.404 L 0,-205.404 L 0,-197.286 L 4,-197.286 L 4,-189.169 L 0,-189.169
 L 0,-181.051 L 4,-181.051 L 4,-172.934 L 0,-172.934 L 0,-164.816 L 4,-164.816
 L 4,-156.698 L 0,-156.698 L 0,-148.581 L 4,-148.581 L 4,-140.463 L 0,-140.463
 L 0,-132.345 L 4,-132.345 L 4,-124.228 L 0,-124.228 L 0,-116.11 L 4,-116.11
 L 4,-104.11 L 12,-104.11 L 12,-100.11 L 20.5882,-100.11 z
M 14.125,-234.484 L 13.25,-236 L 14.125,-237.516 L 15.875,-237.516 L 16.75,-236 L 15.875,-234.484
 z
M 90.125,-234.484 L 89.25,-236 L 90.125,-237.516 L 91.875,-237.516 L 92.75,-236 L 91.875,-234.484
 z
M 14.125,-132.484 L 13.25,-134 L 14.125,-135.516 L 15.875,-135.516 L 16.75,-134 L 15.875,-132.484
 z
M 90.125,-132.484 L 89.25,-134 L 90.125,-135.516 L 91.875,-135.516 L 92.75,-134 L 91.875,-132.484
 z
M 526.33,-4 L 534.448,-4 L 534.448,-0 L 542.565,-0 L 542.565,-4 L 550.683,-4
 L 550.683,-0 L 558.801,-0 L 558.801,-4 L 566.918,-4 L 566.918,-0 L 575.036,-0
 L 575.036,-4 L 583.154,-4 L 583.154,-0 L 591.271,-0 L 591.271,-4 L 599.389,-4
 L 599.389,-0 L 607.506,-0 L 607.506,-4 L 615.624,-4 L 615.624,-0 L 623.742,-0
 L 623.742,-4 L 631.859,-4 L 631.859,-0 L 639.977,-0 L 639.977,-4 L 648.095,-4
 L 648.095,-0 L 656.212,-0 L 656.212,-4 L 664.33,-4 L 664.33,-0 L 676.33,-0
 L 676.33,-12 L 680.33,-12 L 680.33,-20.4444 L 676.33,-20.4444 L 676.33,-28.8889 L 680.33,-28.8889
 L 680.33,-37.3333 L 676.33,-37.3333 L 676.33,-45.7778 L 680.33,-45.7778 L 680.33,-54.2222 L 676.33,-54.2222
 L 676.33,-62.6667 L 680.33,-62.6667 L 680.33,-71.1111 L 676.33,-71.1111 L 676.33,-79.5555 L 680.33,-79.5555
 L 680.33,-88 L 676.33,-88 L 676.33,-100 L 664.33,-100 L 664.33,-96 L 656.212,-96
 L 656.212,-100 L 648.095,-100 L 648.095,-96 L 639.977,-96 L 639.977,-100 L 631.859,-100
 L 631.859,-96 L 623.742,-96 L 623.742,-100 L 615.624,-100 L 615.624,-96 L 607.506,-96
 L 607.506,-100 L 599.389,-100 L 599.389,-96 L 591.271,-96 L 591.271,-100 L 583.154,-100
 L 583.154,-96 L 575.036,-96 L 575.036,-100 L 566.918,-100 L 566.918,-96 L 558.801,-96
 L 558.801,-100 L 550.683,-100 L 550.683,-96 L 542.565,-96 L 542.565,-100 L 534.448,-100
 L 534.448,-96 L 526.33,-96 L 526.33,-100 L 514.33,-100 L 514.33,-88 L 510.33,-88
 L 510.33,-79.5556 L 514.33,-79.5556 L 514.33,-71.1111 L 510.33,-71.1111 L 510.33,-62.6667 L 514.33,-62.6667
 L 514.33,-54.2222 L 510.33,-54.2222 L 510.33,-45.7778 L 514.33,-45.7778 L 514.33,-37.3333 L 510.33,-37.3333
 L 510.33,-28.8889 L 514.33,-28.8889 L 514.33,-20.4445 L 510.33,-20.4445 L 510.33,-12 L 514.33,-12
 L 514.33,-0 L 526.33,-0 z
M 182.11,-4 L 190.698,-4 L 190.698,-0 L 199.286,-0 L 199.286,-4 L 207.875,-4
 L 207.875,-0 L 216.463,-0 L 216.463,-4 L 225.051,-4 L 225.051,-0 L 233.639,-0
 L 233.639,-4 L 242.228,-4 L 242.228,-0 L 250.816,-0 L 250.816,-4 L 259.404,-4
 L 259.404,-0 L 267.992,-0 L 267.992,-4 L 276.581,-4 L 276.581,-0 L 285.169,-0
 L 285.169,-4 L 293.757,-4 L 293.757,-0 L 302.345,-0 L 302.345,-4 L 310.934,-4
 L 310.934,-0 L 319.522,-0 L 319.522,-4 L 328.11,-4 L 328.11,-0 L 340.11,-0
 L 340.11,-12 L 336.11,-12 L 336.11,-20.4444 L 340.11,-20.4444 L 340.11,-28.8889 L 336.11,-28.8889
 L 336.11,-37.3333 L 340.11,-37.3333 L 340.11,-45.7778 L 336.11,-45.7778 L 336.11,-54.2222 L 340.11,-54.2222
 L 340.11,-62.6667 L 336.11,-62.6667 L 336.11,-71.1111 L 340.11,-71.1111 L 340.11,-79.5555 L 336.11,-79.5555
 L 336.11,-88 L 340.11,-88 L 340.11,-100 L 328.11,-100 L 328.11,-96 L 319.522,-96
 L 319.522,-100 L 310.934,-100 L 310.934,-96 L 302.345,-96 L 302.345,-100 L 293.757,-100
 L 293.757,-96 L 285.169,-96 L 285.169,-100 L 276.581,-100 L 276.581,-96 L 267.992,-96
 L 267.992,-100 L 259.404,-100 L 259.404,-96 L 250.816,-96 L 250.816,-100 L 242.228,-100
 L 242.228,-96 L 233.639,-96 L 233.639,-100 L 225.051,-100 L 225.051,-96 L 216.463,-96
 L 216.463,-100 L 207.875,-100 L 207.875,-96 L 199.286,-96 L 199.286,-100 L 190.698,-100
 L 190.698,-96 L 182.11,-96 L 182.11,-100 L 170.11,-100 L 170.11,-88 L 174.11,-88
 L 174.11,-79.5556 L 170.11,-79.5556 L 170.11,-71.1111 L 174.11,-71.1111 L 174.11,-62.6667 L 170.11,-62.6667
 L 170.11,-54.2222 L 174.11,-54.2222 L 174.11,-45.7778 L 170.11,-45.7778 L 170.11,-37.3333 L 174.11,-37.3333
 L 174.11,-28.8889 L 170.11,-28.8889 L 170.11,-20.4445 L 174.11,-20.4445 L 174.11,-12 L 170.11,-12
 L 170.11,-0 L 182.11,-0 z
M 12,-4 L 20.5882,-4 L 20.5882,-0 L 29.1765,-0 L 29.1765,-4 L 37.7647,-4
 L 37.7647,-0 L 46.3529,-0 L 46.3529,-4 L 54.9412,-4 L 54.9412,-0 L 63.5294,-0
 L 63.5294,-4 L 72.1176,-4 L 72.1176,-0 L 80.7059,-0 L 80.7059,-4 L 89.2941,-4
 L 89.2941,-0 L 97.8823,-0 L 97.8823,-4 L 106.471,-4 L 106.471,-0 L 115.059,-0
 L 115.059,-4 L 123.647,-4 L 123.647,-0 L 132.235,-0 L 132.235,-4 L 140.824,-4
 L 140.824,-0 L 149.412,-0 L 149.412,-4 L 158,-4 L 158,-0 L 170,-0
 L 170,-12 L 166,-12 L 166,-20.4444 L 170,-20.4444 L 170,-28.8889 L 166,-28.8889
 L 166,-37.3333 L 170,-37.3333 L 170,-45.7778 L 166,-45.7778 L 166,-54.2222 L 170,-54.2222
 L 170,-62.6667 L 166,-62.6667 L 166,-71.1111 L 170,-71.1111 L 170,-79.5555 L 166,-79.5555
 L 166,-88 L 170,-88 L 170,-100 L 158,-100 L 158,-96 L 149.412,-96
 L 149.412,-100 L 140.824,-100 L 140.824,-96 L 132.235,-96 L 132.235,-100 L 123.647,-100
 L 123.647,-96 L 115.059,-96 L 115.059,-100 L 106.471,-100 L 106.471,-96 L 97.8824,-96
 L 97.8824,-100 L 89.2941,-100 L 89.2941,-96 L 80.7059,-96 L 80.7059,-100 L 72.1177,-100
 L 72.1177,-96 L 63.5294,-96 L 63.5294,-100 L 54.9412,-100 L 54.9412,-96 L 46.353,-96
 L 46.353,-100 L 37.7647,-100 L 37.7647,-96 L 29.1765,-96 L 29.1765,-100 L 20.5882,-100
 L 20.5882,-96 L 12,-96 L 12,-100 L 0,-100 L 0,-88 L 4,-88
 L 4,-79.5556 L 0,-79.5556 L 0,-71.1111 L 4,-71.1111 L 4,-62.6667 L 0,-62.6667
 L 0,-54.2222 L 4,-54.2222 L 4,-45.7778 L 0,-45.7778 L 0,-37.3333 L 4,-37.3333
 L 4,-28.8889 L 0,-28.8889 L 0,-20.4445 L 4,-20.4445 L 4,-12 L 0,-12
 L 0,-0 L 12,-0 z
M 20,-20 L 20,-43.5 L 42,-43.5 L 42,-20 z
M 83.9547,-21.8048 L 81.9098,-22.2394 L 80,-23.0897 L 78.3087,-24.3185 L 76.9098,-25.8721 L 75.8645,-27.6826
 L 75.2185,-29.6709 L 75,-31.75 L 75.2185,-33.8291 L 75.8645,-35.8174 L 76.9098,-37.6278 L 78.3087,-39.1814
 L 80,-40.4102 L 81.9098,-41.2606 L 83.9547,-41.6952 L 86.0453,-41.6952 L 88.0902,-41.2606 L 90,-40.4102
 L 91.6913,-39.1814 L 93.0902,-37.6278 L 94.1355,-35.8174 L 94.7815,-33.8291 L 95,-31.75 L 94.7815,-29.6709
 L 94.1355,-27.6826 L 93.0902,-25.8721 L 91.6913,-24.3185 L 90,-23.0897 L 88.0902,-22.2394 L 86.0453,-21.8048
 z
M 57.6501,-26.3927 L 56.0379,-27.446 L 54.8551,-28.9657 L 54.2298,-30.7871 L 54.2298,-32.7129 L 54.8551,-34.5343
 L 56.0379,-36.054 L 57.6501,-37.1073 L 59.5169,-37.58 L 61.4361,-37.421 L 63.1996,-36.6474 L 64.6165,-35.3431
 L 65.533,-33.6495 L 65.85,-31.75 L 65.533,-29.8505 L 64.6165,-28.1568 L 63.1996,-26.8526 L 61.4361,-26.079
 L 59.5169,-25.92 z
M 43.625,-30.2345 L 42.75,-31.75 L 43.625,-33.2655 L 45.375,-33.2655 L 46.25,-31.75 L 45.375,-30.2345
 z
M 16.625,-30.2345 L 15.75,-31.75 L 16.625,-33.2655 L 18.375,-33.2655 L 19.25,-31.75 L 18.375,-30.2345
 z
M 356.22,-4 L 364.338,-4 L 364.338,-0 L 372.455,-0 L 372.455,-4 L 380.573,-4
 L 380.573,-0 L 388.691,-0 L 388.691,-4 L 396.808,-4 L 396.808,-0 L 404.926,-0
 L 404.926,-4 L 413.044,-4 L 413.044,-0 L 421.161,-0 L 421.161,-4 L 429.279,-4
 L 429.279,-0 L 437.396,-0 L 437.396,-4 L 445.514,-4 L 445.514,-0 L 453.632,-0
 L 453.632,-4 L 461.749,-4 L 461.749,-0 L 469.867,-0 L 469.867,-4 L 477.985,-4
 L 477.985,-0 L 486.102,-0 L 486.102,-4 L 494.22,-4 L 494.22,-0 L 506.22,-0
 L 506.22,-12 L 510.22,-12 L 510.22,-20.4444 L 506.22,-20.4444 L 506.22,-28.8889 L 510.22,-28.8889
 L 510.22,-37.3333 L 506.22,-37.3333 L 506.22,-45.7778 L 510.22,-45.7778 L 510.22,-54.2222 L 506.22,-54.2222
 L 506.22,-62.6667 L 510.22,-62.6667 L 510.22,-71.1111 L 506.22,-71.1111 L 506.22,-79.5555 L 510.22,-79.5555
 L 510.22,-88 L 506.22,-88 L 506.22,-100 L 494.22,-100 L 494.22,-96 L 486.102,-96
 L 486.102,-100 L 477.985,-100 L 477.985,-96 L 469.867,-96 L 469.867,-100 L 461.749,-100
 L 461.749,-96 L 453.632,-96 L 453.632,-100 L 445.514,-100 L 445.514,-96 L 437.396,-96
 L 437.396,-100 L 429.279,-100 L 429.279,-96 L 421.161,-96 L 421.161,-100 L 413.044,-100
 L 413.044,-96 L 404.926,-96 L 404.926,-100 L 396.808,-100 L 396.808,-96 L 388.691,-96
 L 388.691,-100 L 380.573,-100 L 380.573,-96 L 372.455,-96 L 372.455,-100 L 364.338,-100
 L 364.338,-96 L 356.22,-96 L 356.22,-100 L 344.22,-100 L 344.22,-88 L 340.22,-88
 L 340.22,-79.5556 L 344.22,-79.5556 L 344.22,-71.1111 L 340.22,-71.1111 L 340.22,-62.6667 L 344.22,-62.6667
 L 344.22,-54.2222 L 340.22,-54.2222 L 340.22,-45.7778 L 344.22,-45.7778 L 344.22,-37.3333 L 340.22,-37.3333
 L 340.22,-28.8889 L 344.22,-28.8889 L 344.22,-20.4445 L 340.22,-20.4445 L 340.22,-12 L 344.22,-12
 L 344.22,-0 L 356.22,-0 z
" stroke="black" fill="lightgray" stroke-width="0.5"/>
</svg>
